<?xml version="1.0" encoding="UTF-8" standalone="no"?>
<svg
   xmlns:dc="http://purl.org/dc/elements/1.1/"
   xmlns:cc="http://creativecommons.org/ns#"
   xmlns:rdf="http://www.w3.org/1999/02/22-rdf-syntax-ns#"
   xmlns:svg="http://www.w3.org/2000/svg"
   xmlns="http://www.w3.org/2000/svg"
   viewBox="0 0 816 1056"
   height="1056"
   width="816"
   xml:space="preserve"
   id="svg7733"
   version="1.1"><metadata
     id="metadata7739"><rdf:RDF><cc:Work
         rdf:about=""><dc:format>image/svg+xml</dc:format><dc:type
           rdf:resource="http://purl.org/dc/dcmitype/StillImage" /><dc:title></dc:title></cc:Work></rdf:RDF></metadata><defs
     id="defs7737"><clipPath
       id="clipPath7749"
       clipPathUnits="userSpaceOnUse"><path
         id="path7747"
         d="M 0,792.004 H 595.274 V 0 H 0 Z" /></clipPath><clipPath
       id="clipPath7761"
       clipPathUnits="userSpaceOnUse"><path
         id="path7759"
         d="M 0,792.004 H 595.274 V 0 H 0 Z" /></clipPath><clipPath
       id="clipPath7773"
       clipPathUnits="userSpaceOnUse"><path
         id="path7771"
         d="M 0,792.004 H 595.274 V 0 H 0 Z" /></clipPath><clipPath
       id="clipPath7785"
       clipPathUnits="userSpaceOnUse"><path
         id="path7783"
         d="M 0,792.004 H 595.274 V 0 H 0 Z" /></clipPath><clipPath
       id="clipPath7797"
       clipPathUnits="userSpaceOnUse"><path
         id="path7795"
         d="M 0,792.004 H 595.274 V 0 H 0 Z" /></clipPath><clipPath
       id="clipPath7809"
       clipPathUnits="userSpaceOnUse"><path
         id="path7807"
         d="M 0,792.004 H 595.274 V 0 H 0 Z" /></clipPath><clipPath
       id="clipPath7821"
       clipPathUnits="userSpaceOnUse"><path
         id="path7819"
         d="M 0,792.004 H 595.274 V 0 H 0 Z" /></clipPath><clipPath
       id="clipPath7833"
       clipPathUnits="userSpaceOnUse"><path
         id="path7831"
         d="M 0,792.004 H 595.274 V 0 H 0 Z" /></clipPath><clipPath
       id="clipPath7845"
       clipPathUnits="userSpaceOnUse"><path
         id="path7843"
         d="M 0,792.004 H 595.274 V 0 H 0 Z" /></clipPath><clipPath
       id="clipPath7857"
       clipPathUnits="userSpaceOnUse"><path
         id="path7855"
         d="M 0,792.004 H 595.274 V 0 H 0 Z" /></clipPath><clipPath
       id="clipPath7869"
       clipPathUnits="userSpaceOnUse"><path
         id="path7867"
         d="M 0,792.004 H 595.274 V 0 H 0 Z" /></clipPath><clipPath
       id="clipPath7881"
       clipPathUnits="userSpaceOnUse"><path
         id="path7879"
         d="M 0,792.004 H 595.274 V 0 H 0 Z" /></clipPath><clipPath
       id="clipPath7893"
       clipPathUnits="userSpaceOnUse"><path
         id="path7891"
         d="M 0,792.004 H 595.274 V 0 H 0 Z" /></clipPath><clipPath
       id="clipPath7905"
       clipPathUnits="userSpaceOnUse"><path
         id="path7903"
         d="M 0,792.004 H 595.274 V 0 H 0 Z" /></clipPath></defs><g
     transform="matrix(1.3333333,0,0,-1.3333333,0,1056)"
     id="g7741"><g
       transform="translate(3.5149994,-0.6252289)"
       id="g7743"><g
         clip-path="url(#clipPath7749)"
         id="g7745"><g
           transform="translate(304.19792,26.740204)"
           id="g7751"><path
             id="path7753"
             style="fill:none;stroke:#0a0a0d;stroke-width:1.2;stroke-linecap:butt;stroke-linejoin:miter;stroke-miterlimit:10;stroke-dasharray:none;stroke-opacity:1"
             d="m 0,0 c 1.124,0 4.306,-2.607 4.306,-3.763 h 259.188 c 0,1.156 3.182,3.763 4.306,3.763 l -0.001,738.524 c -1.124,0 -4.306,2.607 -4.306,3.763 H 4.306 c 0,-1.156 -3.183,-3.763 -4.307,-3.763 z" /></g></g></g><g
       transform="translate(3.5150146,-0.6252289)"
       id="g7755"><g
         clip-path="url(#clipPath7761)"
         id="g7757"><g
           transform="translate(571.99759,33.361298)"
           id="g7763"><path
             id="path7765"
             style="fill:none;stroke:#0a0a0d;stroke-width:0.75;stroke-linecap:butt;stroke-linejoin:miter;stroke-miterlimit:10;stroke-dasharray:none;stroke-opacity:1"
             d="M 0,0 C -1.632,-5.227 -7.098,-10.235 -10.639,-10.384" /></g></g></g><g
       transform="translate(3.5150146,-0.6252289)"
       id="g7767"><g
         clip-path="url(#clipPath7773)"
         id="g7769"><g
           transform="translate(304.19791,33.361298)"
           id="g7775"><path
             id="path7777"
             style="fill:none;stroke:#0a0a0d;stroke-width:0.75;stroke-linecap:butt;stroke-linejoin:miter;stroke-miterlimit:10;stroke-dasharray:none;stroke-opacity:1"
             d="M 0,0 C 1.632,-5.227 7.098,-10.235 10.639,-10.384" /></g></g></g><g
       transform="translate(3.5150146,-0.6252289)"
       id="g7779"><g
         clip-path="url(#clipPath7785)"
         id="g7781"><g
           transform="translate(571.99692,758.64281)"
           id="g7787"><path
             id="path7789"
             style="fill:none;stroke:#0a0a0d;stroke-width:0.75;stroke-linecap:butt;stroke-linejoin:miter;stroke-miterlimit:10;stroke-dasharray:none;stroke-opacity:1"
             d="M 0,0 C -1.632,5.227 -7.098,10.235 -10.64,10.384" /></g></g></g><g
       transform="translate(3.5150146,-0.6252289)"
       id="g7791"><g
         clip-path="url(#clipPath7797)"
         id="g7793"><g
           transform="translate(304.1973,758.64281)"
           id="g7799"><path
             id="path7801"
             style="fill:none;stroke:#0a0a0d;stroke-width:0.75;stroke-linecap:butt;stroke-linejoin:miter;stroke-miterlimit:10;stroke-dasharray:none;stroke-opacity:1"
             d="M 0,0 C 1.632,5.227 7.098,10.235 10.639,10.384" /></g></g></g><g
       transform="translate(3.5150299,-0.6252289)"
       id="g7803"><g
         clip-path="url(#clipPath7809)"
         id="g7805"><g
           transform="translate(23.2771,26.740204)"
           id="g7811"><path
             id="path7813"
             style="fill:none;stroke:#0a0a0d;stroke-width:1.2;stroke-linecap:butt;stroke-linejoin:miter;stroke-miterlimit:10;stroke-dasharray:none;stroke-opacity:1"
             d="m 0,0 c 1.124,0 4.306,-2.607 4.306,-3.763 h 259.188 c 0,1.156 3.182,3.763 4.306,3.763 l -0.001,738.524 c -1.124,0 -4.306,2.607 -4.306,3.763 H 4.306 c 0,-1.156 -3.183,-3.763 -4.307,-3.763 z" /></g></g></g><g
       transform="translate(3.5149994,-0.6252289)"
       id="g7815"><g
         clip-path="url(#clipPath7821)"
         id="g7817"><g
           transform="translate(291.07671,33.361298)"
           id="g7823"><path
             id="path7825"
             style="fill:none;stroke:#0a0a0d;stroke-width:0.75;stroke-linecap:butt;stroke-linejoin:miter;stroke-miterlimit:10;stroke-dasharray:none;stroke-opacity:1"
             d="M 0,0 C -1.632,-5.227 -7.098,-10.235 -10.639,-10.384" /></g></g></g><g
       transform="translate(3.5150146,-0.6252289)"
       id="g7827"><g
         clip-path="url(#clipPath7833)"
         id="g7829"><g
           transform="translate(23.2771,33.361298)"
           id="g7835"><path
             id="path7837"
             style="fill:none;stroke:#0a0a0d;stroke-width:0.75;stroke-linecap:butt;stroke-linejoin:miter;stroke-miterlimit:10;stroke-dasharray:none;stroke-opacity:1"
             d="M 0,0 C 1.632,-5.227 7.098,-10.235 10.639,-10.384" /></g></g></g><g
       transform="translate(3.5150146,-0.6252289)"
       id="g7839"><g
         clip-path="url(#clipPath7845)"
         id="g7841"><g
           transform="translate(291.07608,758.64281)"
           id="g7847"><path
             id="path7849"
             style="fill:none;stroke:#0a0a0d;stroke-width:0.75;stroke-linecap:butt;stroke-linejoin:miter;stroke-miterlimit:10;stroke-dasharray:none;stroke-opacity:1"
             d="M 0,0 C -1.632,5.227 -7.098,10.235 -10.639,10.384" /></g></g></g><g
       transform="translate(3.5150146,-0.6252289)"
       id="g7851"><g
         clip-path="url(#clipPath7857)"
         id="g7853"><g
           transform="translate(23.276398,758.64281)"
           id="g7859"><path
             id="path7861"
             style="fill:none;stroke:#0a0a0d;stroke-width:0.75;stroke-linecap:butt;stroke-linejoin:miter;stroke-miterlimit:10;stroke-dasharray:none;stroke-opacity:1"
             d="M 0,0 C 1.632,5.227 7.098,10.235 10.639,10.384" /></g></g></g><g
       transform="translate(3.5150146,-0.6252289)"
       id="g7863"><g
         clip-path="url(#clipPath7869)"
         id="g7865"><g
           transform="translate(26.276581,764.00468)"
           id="g7871"><path
             id="path7873"
             style="fill:none;stroke:#0a0a0d;stroke-width:0.5;stroke-linecap:butt;stroke-linejoin:miter;stroke-miterlimit:10;stroke-dasharray:none;stroke-opacity:1"
             d="M 0,0 V -736.005" /></g></g></g><g
       transform="translate(3.5150146,-0.6252289)"
       id="g7875"><g
         clip-path="url(#clipPath7881)"
         id="g7877"><g
           transform="translate(288.07608,764.00468)"
           id="g7883"><path
             id="path7885"
             style="fill:none;stroke:#0a0a0d;stroke-width:0.5;stroke-linecap:butt;stroke-linejoin:miter;stroke-miterlimit:10;stroke-dasharray:none;stroke-opacity:1"
             d="M 0,0 V -736.005" /></g></g></g><g
       transform="translate(3.5150146,-0.6252289)"
       id="g7887"><g
         clip-path="url(#clipPath7893)"
         id="g7889"><g
           transform="translate(307.19742,764.00468)"
           id="g7895"><path
             id="path7897"
             style="fill:none;stroke:#0a0a0d;stroke-width:0.5;stroke-linecap:butt;stroke-linejoin:miter;stroke-miterlimit:10;stroke-dasharray:none;stroke-opacity:1"
             d="M 0,0 V -736.005" /></g></g></g><g
       transform="translate(3.5150146,-0.6252289)"
       id="g7899"><g
         clip-path="url(#clipPath7905)"
         id="g7901"><g
           transform="translate(568.99692,764.00468)"
           id="g7907"><path
             id="path7909"
             style="fill:none;stroke:#0a0a0d;stroke-width:0.5;stroke-linecap:butt;stroke-linejoin:miter;stroke-miterlimit:10;stroke-dasharray:none;stroke-opacity:1"
             d="M 0,0 V -736.005" /></g></g></g><text
       id="text7913"
       style="font-variant:normal;font-weight:bold;font-stretch:normal;font-size:6.5px;font-family:'Scala Sans LF';-inkscape-font-specification:'Scala Sans LF Bold';writing-mode:lr-tb;fill:#0a0a0d;fill-opacity:1;fill-rule:nonzero;stroke:none;font-style:normal;"
       transform="matrix(1,0,0,-1,150.5072,27.5809)"><tspan
         id="tspan7911"
         y="0"
         x="0 4.9334998 9.8929996 13.3965 16.9 280.92349 285.85699 290.8165 294.32001 297.82349">NOTESNOTES</tspan></text></g></svg>
